# xmcd
#
# Track frame offsets:
#	150
#	40820
#	82240
#	123168
#
# Disc length: 2123 seconds
#
# Revision: 0
# Processed by: cddbd v1.5.2PL0 Copyright (c) Steve Scherf et al.
# Submitted via: EasyCDDAExtractor 11.6.0.1
#
DISCID=2c084904
DTITLE=Michael Tsukerman and Robert Gitelman - Bolivia (Ask4 Records)
DYEAR=2008
DGENRE=Trance
TTITLE0=Bolivia (Onova Remix)
TTITLE1=Bolivia (Oceania Remix)
TTITLE2=Bolivia (Skytech Remix)
TTITLE3=Bolivia (Original Mix)
EXTD=
EXTT0=
EXTT1=
EXTT2=
EXTT3=
PLAYORDER=
